<?xml version="1.0" encoding="UTF-8" standalone="no"?>
<svg width="75px" height="16px" viewBox="0 0 75 16" version="1.1" xmlns="http://www.w3.org/2000/svg" xmlns:xlink="http://www.w3.org/1999/xlink">
    <!-- Generator: Sketch 41 (35326) - http://www.bohemiancoding.com/sketch -->
    <title>aperture/logo-footer</title>
    <desc>Created with Sketch.</desc>
    <defs></defs>
    <g id="Logos-for-Orga-LP" stroke="none" stroke-width="1" fill="none" fill-rule="evenodd">
        <g id="aperture/logo-footer" fill="#FFFFFF">
            <g id="03_aperture_logo">
                <g id="Layer_1">
                    <path d="M0,8.45714286 C0,10.9714286 1.71428571,12.9142857 4.11428571,12.9142857 C5.25714286,12.9142857 6.28571429,12.2285714 7.08571429,11.2 L6.85714286,12.6857143 L9.6,12.6857143 L10.9714286,3.42857143 L8.22857143,3.42857143 L8,5.02857143 C7.31428571,3.88571429 6.28571429,3.2 5.14285714,3.2 C2.28571429,3.2 0,5.71428571 0,8.45714286 L0,8.45714286 Z M5.02857143,10.6285714 C3.77142857,10.6285714 2.74285714,9.6 2.74285714,8.22857143 C2.74285714,6.74285714 4,5.37142857 5.37142857,5.37142857 C6.62857143,5.37142857 7.65714286,6.4 7.65714286,7.77142857 C7.65714286,9.37142857 6.4,10.6285714 5.02857143,10.6285714 L5.02857143,10.6285714 Z M22.7428571,7.54285714 C22.7428571,5.02857143 21.0285714,3.08571429 18.6285714,3.08571429 C17.4857143,3.08571429 16.3428571,3.77142857 15.6571429,4.8 L15.8857143,3.42857143 L13.1428571,3.42857143 L11.3142857,16 L14.0571429,16 L14.8571429,10.9714286 C15.4285714,12.1142857 16.5714286,12.8 17.7142857,12.8 C20.5714286,12.9142857 22.7428571,10.2857143 22.7428571,7.54285714 L22.7428571,7.54285714 Z M17.7142857,5.48571429 C18.9714286,5.48571429 20,6.51428571 20,7.88571429 C20,9.37142857 18.7428571,10.7428571 17.3714286,10.7428571 C16.1142857,10.7428571 15.0857143,9.71428571 15.0857143,8.34285714 C15.0857143,6.62857143 16.4571429,5.48571429 17.7142857,5.48571429 L17.7142857,5.48571429 Z M33.1428571,8.91428571 C33.2571429,8.45714286 33.2571429,8 33.2571429,7.54285714 C33.2571429,5.14285714 31.7714286,3.2 28.9142857,3.2 C25.6,3.2 23.8857143,5.94285714 23.8857143,8.45714286 C23.8857143,10.9714286 25.4857143,12.9142857 28.4571429,12.9142857 C30.5142857,12.9142857 31.8857143,12 32.5714286,10.9714286 L30.7428571,9.6 C30.2857143,10.2857143 29.6,10.7428571 28.6857143,10.7428571 C27.6571429,10.7428571 26.7428571,10.1714286 26.5142857,8.91428571 L33.1428571,8.91428571 L33.1428571,8.91428571 Z M28.8,5.25714286 C29.7142857,5.25714286 30.5142857,5.94285714 30.5142857,6.97142857 L26.6285714,6.97142857 C26.9714286,5.94285714 27.7714286,5.25714286 28.8,5.25714286 L28.8,5.25714286 Z M37.9428571,3.42857143 L35.4285714,3.42857143 L34.0571429,12.6857143 L36.8,12.6857143 L37.4857143,8.22857143 C37.6,6.85714286 38.7428571,5.71428571 40.1142857,5.71428571 C40.3428571,5.71428571 40.5714286,5.71428571 40.9142857,5.82857143 L41.2571429,3.2 C41.0285714,3.08571429 40.6857143,3.08571429 40.4571429,3.08571429 C39.3142857,3.08571429 38.4,3.65714286 37.6,5.02857143 L37.9428571,3.42857143 L37.9428571,3.42857143 Z M48.1142857,3.42857143 L46.4,3.42857143 L46.8571429,0 L44.1142857,0 L43.6571429,3.42857143 L42.4,3.42857143 L42.0571429,5.6 L43.4285714,5.6 L42.2857143,12.6857143 L45.0285714,12.6857143 L46.0571429,5.6 L47.7714286,5.6 L48.1142857,3.42857143 L48.1142857,3.42857143 Z M54.7428571,8.91428571 C54.6285714,9.94285714 53.7142857,10.5142857 52.8,10.5142857 C52,10.5142857 51.0857143,9.94285714 51.3142857,8.8 L52.1142857,3.42857143 L49.4857143,3.42857143 L48.6857143,8.57142857 C48.2285714,11.4285714 50.4,12.9142857 52.5714286,12.9142857 C55.2,12.9142857 57.0285714,11.2 57.2571429,9.14285714 L58.1714286,3.42857143 L55.5428571,3.42857143 L54.7428571,8.91428571 L54.7428571,8.91428571 Z M62.6285714,3.42857143 L60.1142857,3.42857143 L58.7428571,12.6857143 L61.4857143,12.6857143 L62.1714286,8.22857143 C62.2857143,6.85714286 63.4285714,5.71428571 64.8,5.71428571 C65.0285714,5.71428571 65.2571429,5.71428571 65.6,5.82857143 L65.9428571,3.2 C65.7142857,3.08571429 65.3714286,3.08571429 65.1428571,3.08571429 C64,3.08571429 63.0857143,3.65714286 62.2857143,5.02857143 L62.6285714,3.42857143 L62.6285714,3.42857143 Z M75.3142857,8.91428571 C75.4285714,8.45714286 75.4285714,8 75.4285714,7.54285714 C75.4285714,5.14285714 73.9428571,3.2 71.2,3.2 C67.8857143,3.2 66.1714286,5.82857143 66.1714286,8.34285714 C66.1714286,10.7428571 67.7714286,12.8 70.7428571,12.8 C72.8,12.8 74.1714286,11.8857143 74.7428571,10.8571429 L72.9142857,9.6 C72.4571429,10.2857143 71.7714286,10.7428571 70.8571429,10.7428571 C69.8285714,10.7428571 68.9142857,10.1714286 68.6857143,8.91428571 L75.3142857,8.91428571 L75.3142857,8.91428571 Z M71.0857143,5.37142857 C72,5.37142857 72.6857143,6.05714286 72.8,7.08571429 L68.9142857,7.08571429 C69.2571429,5.94285714 70.0571429,5.37142857 71.0857143,5.37142857 L71.0857143,5.37142857 Z" id="Shape"></path>
                </g>
            </g>
        </g>
    </g>
</svg>