<?xml version="1.0" encoding="UTF-8" standalone="no"?>
<svg width="124px" height="175px" viewBox="0 0 124 175" version="1.1" xmlns="http://www.w3.org/2000/svg" xmlns:xlink="http://www.w3.org/1999/xlink">
    <!-- Generator: Sketch 41 (35326) - http://www.bohemiancoding.com/sketch -->
    <title>aperture/logo</title>
    <desc>Created with Sketch.</desc>
    <defs></defs>
    <g id="Logos-for-Orga-LP" stroke="none" stroke-width="1" fill="none" fill-rule="evenodd">
        <g id="aperture/logo">
            <g id="04_aperture-portfolio-prize-2017_call-logo">
                <g id="Layer_1">
                    <g id="Group">
                        <polygon id="Shape" fill="#FFDD00" points="0 174.914738 61.8574909 147.48173 123.714982 174.914738 123.714982 0 0 0"></polygon>
                        <g transform="translate(11.723508, 12.362972)" id="Shape" fill="#000000">
                            <path d="M0.19183922,11.2545676 C0.19183922,14.5371498 2.45127893,17.0950061 5.64859927,17.0950061 C7.1406821,17.0950061 8.59013398,16.2423873 9.59196102,14.8781973 L9.29354446,16.817905 L12.8958587,16.817905 L14.7503045,4.54019488 L11.1479903,4.54019488 L10.8282582,6.75700365 C9.99695493,5.26492083 8.61144945,4.26309379 7.03410475,4.26309379 C3.13337393,4.24177832 0.19183922,7.65225335 0.19183922,11.2545676 L0.19183922,11.2545676 Z M6.863581,14.1108404 C5.13702801,14.1108404 3.83678441,12.725335 3.83678441,10.9774665 C3.83678441,8.95249695 5.45676005,7.24725944 7.33252132,7.24725944 C9.01644336,7.24725944 10.316687,8.63276492 10.316687,10.4019488 C10.2953715,12.4482339 8.63276492,14.1108404 6.863581,14.1108404 L6.863581,14.1108404 Z M30.3532278,10.0822168 C30.3532278,6.79963459 28.0937881,4.24177832 24.8964677,4.24177832 C23.361754,4.24177832 21.9336175,5.09439708 20.9317905,6.45858709 L21.2515225,4.51887942 L17.6492083,4.51887942 L15.1339829,21.2941535 L18.7362972,21.2941535 L19.7168088,14.6224117 C20.5267966,16.1144945 21.9336175,17.0950061 23.5109622,17.0950061 C27.3903776,17.0736906 30.3532278,13.6845311 30.3532278,10.0822168 L30.3532278,10.0822168 Z M23.681486,7.22594397 C25.408039,7.22594397 26.7082826,8.61144945 26.7082826,10.3593179 C26.7082826,12.3842875 25.0883069,14.0682095 23.2125457,14.0682095 C21.5286236,14.0682095 20.22838,12.682704 20.22838,10.9135201 C20.22838,8.88855055 21.9123021,7.22594397 23.681486,7.22594397 L23.681486,7.22594397 Z M43.9951279,11.7874543 C44.1656516,11.1906212 44.2082826,10.5724726 44.2082826,10.0182704 C44.2082826,6.84226553 42.2472594,4.26309379 38.4744214,4.26309379 C34.0408039,4.26309379 31.8026797,7.8227771 31.8026797,11.1906212 C31.8026797,14.4732034 33.9768575,17.0950061 37.9202192,17.0950061 C40.7125457,17.0950061 42.4817296,15.8373934 43.3130329,14.4518879 L40.9043849,12.7040195 C40.3501827,13.6419001 39.454933,14.2174178 38.2186358,14.2174178 C36.8118149,14.2174178 35.682095,13.4926918 35.3836784,11.8087698 L43.9951279,11.8087698 L43.9951279,11.7874543 Z M38.2825822,7.05542022 C39.5401949,7.05542022 40.499391,7.90803898 40.6059683,9.4001218 L35.4902558,9.4001218 C35.8952497,7.88672351 37.0036541,7.05542022 38.2825822,7.05542022 L38.2825822,7.05542022 Z M50.453715,4.51887942 L47.1285018,4.51887942 L45.274056,16.7965895 L48.8763703,16.7965895 L49.728989,10.956151 C50.0060901,9.10170524 51.455542,7.65225335 53.2673569,7.65225335 C53.5870889,7.65225335 53.9281364,7.67356882 54.2691839,7.78014616 L54.7807552,4.34835566 C54.4610231,4.24177832 54.0986602,4.22046285 53.7789281,4.22046285 C52.3294762,4.22046285 51.093179,4.96650426 50.0700365,6.82095006 L50.453715,4.51887942 L50.453715,4.51887942 Z M63.9037759,4.51887942 L61.6443362,4.51887942 L62.3051157,0.0426309379 L58.7028015,0.0426309379 L58.0420219,4.51887942 L56.3367844,4.51887942 L55.910475,7.43909866 L57.5943971,7.43909866 L56.1875761,16.7965895 L59.7898904,16.7965895 L61.1967113,7.43909866 L63.4774665,7.43909866 L63.9037759,4.51887942 L63.9037759,4.51887942 Z M72.6004872,11.7874543 C72.408648,13.1090134 71.2149817,13.9190012 70.0852619,13.9190012 C68.955542,13.9190012 67.8684531,13.1516443 68.0816078,11.6595615 L69.1686967,4.51887942 L65.6942753,4.51887942 L64.6498173,11.3398295 C64.0956151,15.0487211 66.8879415,17.0736906 69.7655298,17.0736906 C73.3038977,17.0736906 75.6059683,14.8142509 75.9896468,12.1498173 L77.1406821,4.51887942 L73.6662607,4.51887942 L72.6004872,11.7874543 L72.6004872,11.7874543 Z M83.0663825,4.51887942 L79.7411693,4.51887942 L77.8867235,16.7965895 L81.4890378,16.7965895 L82.3416565,10.956151 C82.6187576,9.10170524 84.0682095,7.65225335 85.8800244,7.65225335 C86.1997564,7.65225335 86.5408039,7.67356882 86.8818514,7.78014616 L87.3934227,4.34835566 C87.0736906,4.24177832 86.7113276,4.22046285 86.3915956,4.22046285 C84.9421437,4.22046285 83.7058465,4.96650426 82.682704,6.82095006 L83.0663825,4.51887942 L83.0663825,4.51887942 Z M99.8842875,11.7874543 C100.033496,11.1906212 100.076127,10.5724726 100.076127,10.0182704 C100.076127,6.88489647 98.136419,4.32704019 94.4062119,4.32704019 C90.0152253,4.32704019 87.7984166,7.84409257 87.7984166,11.1693057 C87.7984166,14.3879415 89.9299635,17.0097442 93.8306943,17.0097442 C96.6017052,17.0097442 98.3282582,15.773447 99.180877,14.409257 L96.7935445,12.682704 C96.2606577,13.6205847 95.3440926,14.1747868 94.1291108,14.1747868 C92.7436054,14.1747868 91.6138855,13.4713764 91.3154689,11.7874543 L99.8842875,11.7874543 L99.8842875,11.7874543 Z M94.2356882,7.07673569 C95.4719854,7.07673569 96.4311815,7.92935445 96.5164434,9.42143727 L91.4433618,9.42143727 C91.8696711,7.95066991 92.95676,7.07673569 94.2356882,7.07673569 L94.2356882,7.07673569 Z"></path>
                            <path d="M5.77649208,39.454933 L4.81729598,45.8708892 L1.21498173,45.8708892 L3.73020706,29.1169306 L7.33252132,29.1169306 L7.07673569,30.7369062 C8.0998782,29.5858709 9.50669915,28.8398295 10.956151,28.8398295 C14.1534714,28.8398295 16.4129111,31.3976857 16.4129111,34.680268 C16.4129111,38.2825822 13.4500609,41.6717418 9.57064555,41.6717418 C8.01461632,41.6717418 6.62911084,40.819123 5.77649208,39.454933 Z M6.30937881,35.5115713 C6.30937881,37.2807552 7.60962241,38.6662607 9.29354446,38.6662607 C11.1693057,38.6662607 12.7892814,36.9610231 12.7892814,34.9573691 C12.7892814,33.2095006 11.4890378,31.8239951 9.76248477,31.8239951 C7.97198538,31.8239951 6.30937881,33.4866017 6.30937881,35.5115713 Z"></path>
                            <path d="M17.4147381,35.7460414 C17.4147381,31.7387333 20.5481121,28.8398295 24.6193666,28.8398295 C28.2429963,28.8398295 31.0992692,31.4190012 31.0992692,34.7442144 C31.0992692,38.7515225 27.9658952,41.6504263 23.8946407,41.6504263 C20.271011,41.6504263 17.4147381,39.0712546 17.4147381,35.7460414 Z M21.0170524,35.5115713 C21.0170524,37.3020706 22.4025579,38.5809988 24.0864799,38.5809988 C25.8556638,38.5809988 27.4116931,37.1315469 27.4116931,34.9360536 C27.4116931,33.1455542 26.1114495,31.8666261 24.3422655,31.8666261 C22.5943971,31.8879415 21.0170524,33.3373934 21.0170524,35.5115713 Z"></path>
                            <path d="M35.1492083,41.3946407 L31.546894,41.3946407 L33.4013398,29.1169306 L36.726553,29.1169306 L36.4281364,31.0779537 C37.4512789,29.4792935 38.6662607,28.8398295 40.0730816,28.8398295 C40.3928136,28.8398295 40.7551766,28.8611449 41.0749086,28.9677223 L40.5633374,32.3781973 C40.2222899,32.27162 39.8812424,32.2503045 39.5615104,32.2503045 C37.7496955,32.2503045 36.2789281,33.6997564 36.0231425,35.5542022 L35.1492083,41.3946407 Z"></path>
                            <polygon points="47.2137637 32.1650426 45.8282582 41.3946407 42.225944 41.3946407 43.6114495 32.1650426 41.9275274 32.1650426 42.3751523 29.1169306 44.0803898 29.1169306 44.7411693 24.6406821 48.3434836 24.6406821 47.682704 29.1169306 49.9421437 29.1169306 49.4945189 32.1650426 47.2137637 32.1650426"></polygon>
                            <path d="M56.2302071,32.1650426 L54.8233861,41.3946407 L51.2637028,41.3946407 L52.6492083,32.1650426 L50.9652862,32.1650426 L51.4129111,29.1169306 L53.0755177,29.1169306 L53.5657734,25.8982948 C54.0560292,22.679659 56.0809988,21.1662607 58.3830694,21.1662607 C59.043849,21.1662607 59.8751523,21.3154689 60.4293544,21.635201 L59.9817296,24.7685749 C59.5127893,24.4701583 59.0864799,24.3848965 58.7454324,24.3848965 C57.8501827,24.3848965 57.317296,24.9177832 57.1680877,25.8769793 L56.6778319,29.1169306 L59.1930572,29.1169306 L58.7454324,32.1650426 L56.2302071,32.1650426 L56.2302071,32.1650426 Z"></path>
                            <path d="M59.0651644,35.7460414 C59.0651644,31.7387333 62.1985384,28.8398295 66.2697929,28.8398295 C69.8934227,28.8398295 72.7496955,31.4190012 72.7496955,34.7442144 C72.7496955,38.7515225 69.6163216,41.6504263 65.545067,41.6504263 C61.9214373,41.6504263 59.0651644,39.0712546 59.0651644,35.7460414 Z M62.6887942,35.5115713 C62.6887942,37.3020706 64.0742996,38.5809988 65.7582217,38.5809988 C67.5274056,38.5809988 69.0834348,37.1315469 69.0834348,34.9360536 C69.0834348,33.1455542 67.7831912,31.8666261 66.0140073,31.8666261 C64.2661389,31.8879415 62.6887942,33.3373934 62.6887942,35.5115713 Z"></path>
                            <polygon points="76.181486 22.1894032 79.7838002 22.1894032 76.9275274 41.4159562 73.3252132 41.4159562"></polygon>
                            <path d="M81.2119367,29.1169306 L84.8142509,29.1169306 L82.9598051,41.3946407 L79.3574909,41.3946407 L81.2119367,29.1169306 Z M81.4464068,24.3422655 C81.4464068,22.9141291 82.5974421,21.8483557 83.9403167,21.8483557 C85.1126675,21.8483557 86.0505481,22.8075518 86.0505481,23.9585871 C86.0505481,25.3867235 84.8995128,26.452497 83.5566382,26.452497 C82.362972,26.4738124 81.4464068,25.5359318 81.4464068,24.3422655 Z"></path>
                            <path d="M85.3684531,35.7460414 C85.3684531,31.7387333 88.501827,28.8398295 92.5730816,28.8398295 C96.1967113,28.8398295 99.0529842,31.4190012 99.0529842,34.7442144 C99.0529842,38.7515225 95.9196102,41.6504263 91.8483557,41.6504263 C88.2247259,41.6504263 85.3684531,39.0712546 85.3684531,35.7460414 Z M88.9920828,35.5115713 C88.9920828,37.3020706 90.3775883,38.5809988 92.0615104,38.5809988 C93.8306943,38.5809988 95.3867235,37.1315469 95.3867235,34.9360536 C95.3867235,33.1455542 94.0864799,31.8666261 92.317296,31.8666261 C90.5694275,31.8879415 88.9920828,33.3373934 88.9920828,35.5115713 Z"></path>
                            <path d="M26.5164434,62.0066991 L25.5572473,68.4226553 L21.954933,68.4226553 L24.4701583,51.6686967 L28.0724726,51.6686967 L27.816687,53.2886724 C28.8398295,52.137637 30.2466504,51.3915956 31.6961023,51.3915956 C34.8934227,51.3915956 37.1528624,53.9494519 37.1528624,57.2320341 C37.1528624,60.8343484 34.1900122,64.2235079 30.3105968,64.2235079 C28.7545676,64.2235079 27.3903776,63.3708892 26.5164434,62.0066991 Z M27.0706456,58.0633374 C27.0706456,59.8325213 28.3708892,61.2180268 30.0548112,61.2180268 C31.9305725,61.2180268 33.5505481,59.5127893 33.5505481,57.5091352 C33.5505481,55.7612667 32.2503045,54.3757613 30.5237515,54.3757613 C28.7332521,54.3757613 27.0706456,56.0383678 27.0706456,58.0633374 Z"></path>
                            <path d="M40.9683313,63.9464068 L37.3660171,63.9464068 L39.2204629,51.6686967 L42.545676,51.6686967 L42.2472594,53.6297199 C43.2704019,52.0310597 44.4853837,51.3915956 45.8922046,51.3915956 C46.2119367,51.3915956 46.5742996,51.4129111 46.8940317,51.5194884 L46.3824604,54.9299635 C46.0414129,54.8233861 45.7003654,54.8020706 45.3806334,54.8020706 C43.5688185,54.8020706 42.0980512,56.2515225 41.8422655,58.1059683 L40.9683313,63.9464068 Z"></path>
                            <path d="M48.7058465,51.6686967 L52.3081608,51.6686967 L50.453715,63.9464068 L46.8514007,63.9464068 L48.7058465,51.6686967 Z M48.9190012,46.8940317 C48.9190012,45.4658952 50.0700365,44.4001218 51.4129111,44.4001218 C52.5852619,44.4001218 53.5231425,45.3593179 53.5231425,46.5103532 C53.5231425,47.9384896 52.3721072,49.0042631 51.0292326,49.0042631 C49.8568819,49.0255786 48.9190012,48.0876979 48.9190012,46.8940317 Z"></path>
                            <polygon points="52.5639464 63.6479903 59.7685749 54.5249695 54.7168088 54.5249695 55.1431181 51.6686967 65.7155907 51.6686967 65.6516443 52.1163216 58.5749086 61.1540804 64.0316687 61.1540804 63.6053593 63.9677223 52.5 63.9677223"></polygon>
                            <path d="M72.0249695,64.2021924 C68.1029233,64.2021924 65.6516443,61.5164434 65.6516443,58.2551766 C65.6516443,54.9299635 67.9750305,51.4129111 72.4299635,51.4129111 C76.2880633,51.4129111 78.3130329,53.9920828 78.3130329,57.1680877 C78.3130329,57.7009744 78.2917174,58.319123 78.1211937,58.8946407 L69.2326431,58.8946407 C69.5523752,60.6211937 70.7886724,61.3459196 72.1954933,61.3459196 C73.4317905,61.3459196 74.3696711,60.8769793 74.8599269,60.0243605 L77.6096224,61.3885505 C76.6717418,62.8380024 74.8599269,64.2021924 72.0249695,64.2021924 Z M69.3605359,56.3794153 L74.7107186,56.3794153 C74.5401949,54.9512789 73.5383678,54.1626066 72.2594397,54.1626066 C70.8739342,54.1626066 69.7442144,55.0152253 69.3605359,56.3794153 Z"></path>
                        </g>
                        <rect id="Rectangle-path" fill="#000000" x="31.2484775" y="92.2533496" width="56.272838" height="0.511571255"></rect>
                        <g transform="translate(29.841657, 109.561510)" id="Shape" fill="#000000">
                            <path d="M0.149208283,20.8038977 L9.10170524,12.1285018 C9.84774665,11.3824604 11.3398295,9.89037759 12.0858709,8.86723508 C13.0024361,7.56699147 13.3434836,6.35200974 13.3434836,5.24360536 C13.3434836,3.92204629 12.7892814,3.02679659 12.2350792,2.4725944 C11.6169306,1.8544458 10.5511571,1.2362972 8.90986602,1.2362972 C7.26857491,1.2362972 6.13885505,1.79049939 5.37149817,2.60048721 C4.54019488,3.45310597 3.98599269,4.75334957 3.90073082,6.11753959 L2.55785627,6.11753959 C2.70706456,4.51887942 3.41047503,2.83495737 4.41230207,1.81181486 C5.39281364,0.788672351 6.97015834,0.0213154689 8.99512789,0.0213154689 C10.7216809,0.0213154689 12.2563946,0.59683313 13.2155907,1.47076736 C14.1747868,2.32338611 14.7929354,3.64494519 14.7929354,5.09439708 C14.7929354,6.28806334 14.4518879,7.80146163 13.3221681,9.37880633 C13.1942753,9.57064555 12.4056029,10.636419 9.97563946,13.0024361 L3.19732034,19.588916 L12.9811206,19.588916 L12.8319123,20.8252132 L0.149208283,20.8252132 L0.149208283,20.8038977 Z"></path>
                            <path d="M29.9908648,1.66260658 C31.8026797,3.53836784 32.2929354,6.5864799 32.2929354,8.7180268 C32.2929354,11.4037759 31.546894,16.13581 28.6053593,19.0347138 C27.2411693,20.3989038 25.6851401,21.1662607 23.4896468,21.1662607 C21.8270402,21.1662607 20.6333739,20.6333739 19.6102314,19.6315469 C18.0968331,18.1181486 17.180268,15.453715 17.180268,12.4908648 C17.180268,9.01644336 18.2886724,4.94518879 20.7825822,2.36601705 C22.3599269,0.724725944 24.1291108,0.0213154689 25.9622412,0.0213154689 C27.7101096,-3.55965257e-14 29.0529842,0.682095006 29.9908648,1.66260658 Z M27.4969549,18.2886724 C30.0761267,15.773447 30.8861145,11.2758831 30.8861145,8.59013398 C30.8861145,6.28806334 30.2679659,3.96467722 28.9677223,2.55785627 C28.1151035,1.64129111 27.091961,1.2362972 25.8343484,1.2362972 C24.1717418,1.2362972 22.9141291,1.93970767 21.8909866,2.98416565 C19.7381242,5.20097442 18.5657734,9.01644336 18.5657734,12.4269184 C18.5657734,15.4323995 19.3757613,17.5 20.5694275,18.6936663 C21.3794153,19.5036541 22.2320341,19.8873325 23.5322777,19.8873325 C25.1948843,19.908648 26.3885505,19.3544458 27.4969549,18.2886724 Z"></path>
                            <polygon points="38.5170524 1.51339829 35.319732 1.51339829 36.0870889 0.277101096 40.0304507 0.277101096 37.5152253 20.8038977 36.1510353 20.8038977"></polygon>
                            <polygon points="55.910475 1.51339829 43.5048721 1.51339829 43.6540804 0.277101096 58.5109622 0.277101096 42.3325213 21.1449452 41.3520097 20.3775883"></polygon>
                        </g>
                    </g>
                </g>
            </g>
        </g>
    </g>
</svg>